<mxfile host="app.diagrams.net" modified="2022-01-25T12:10:37.945Z" agent="5.0 (Windows NT 10.0; Win64; x64) AppleWebKit/537.36 (KHTML, like Gecko) Chrome/97.0.4692.71 Safari/537.36" etag="gyEHoTkJzVSXT58iIey2" version="16.4.6" type="github">
  <diagram id="ZHbVhr5UQ77XnSmUhl32" name="Page-1">
    <mxGraphModel dx="1422" dy="754" grid="1" gridSize="10" guides="1" tooltips="1" connect="1" arrows="1" fold="1" page="1" pageScale="1" pageWidth="827" pageHeight="1169" math="0" shadow="0">
      <root>
        <mxCell id="0" />
        <mxCell id="1" parent="0" />
        <mxCell id="e4yqo13JE2BYS8Fk3GtE-23" value="" style="edgeStyle=orthogonalEdgeStyle;rounded=0;orthogonalLoop=1;jettySize=auto;html=1;" edge="1" parent="1" source="e4yqo13JE2BYS8Fk3GtE-17" target="e4yqo13JE2BYS8Fk3GtE-22">
          <mxGeometry relative="1" as="geometry" />
        </mxCell>
        <mxCell id="e4yqo13JE2BYS8Fk3GtE-17" value="dp[0 1 0 3 2 3] = dp([0 1 0 3 2]) + 1" style="whiteSpace=wrap;html=1;" vertex="1" parent="1">
          <mxGeometry x="269" y="30" width="290" height="60" as="geometry" />
        </mxCell>
        <mxCell id="e4yqo13JE2BYS8Fk3GtE-25" value="" style="edgeStyle=orthogonalEdgeStyle;rounded=0;orthogonalLoop=1;jettySize=auto;html=1;" edge="1" parent="1" source="e4yqo13JE2BYS8Fk3GtE-22" target="e4yqo13JE2BYS8Fk3GtE-24">
          <mxGeometry relative="1" as="geometry" />
        </mxCell>
        <mxCell id="e4yqo13JE2BYS8Fk3GtE-22" value="dp([0 1 0 3 2]) = dp([0 1 0 3])" style="whiteSpace=wrap;html=1;" vertex="1" parent="1">
          <mxGeometry x="259" y="160" width="310" height="60" as="geometry" />
        </mxCell>
        <mxCell id="e4yqo13JE2BYS8Fk3GtE-27" value="" style="edgeStyle=orthogonalEdgeStyle;rounded=0;orthogonalLoop=1;jettySize=auto;html=1;" edge="1" parent="1" source="e4yqo13JE2BYS8Fk3GtE-24" target="e4yqo13JE2BYS8Fk3GtE-26">
          <mxGeometry relative="1" as="geometry" />
        </mxCell>
        <mxCell id="e4yqo13JE2BYS8Fk3GtE-24" value="&lt;span&gt;dp([0 1 0 3]) = dp([0 1 0]) + 1&lt;/span&gt;" style="whiteSpace=wrap;html=1;" vertex="1" parent="1">
          <mxGeometry x="219" y="290" width="390" height="60" as="geometry" />
        </mxCell>
        <mxCell id="e4yqo13JE2BYS8Fk3GtE-29" value="" style="edgeStyle=orthogonalEdgeStyle;rounded=0;orthogonalLoop=1;jettySize=auto;html=1;" edge="1" parent="1" source="e4yqo13JE2BYS8Fk3GtE-26" target="e4yqo13JE2BYS8Fk3GtE-28">
          <mxGeometry relative="1" as="geometry" />
        </mxCell>
        <mxCell id="e4yqo13JE2BYS8Fk3GtE-26" value="dp([0 1 0]) = dp([0 1])" style="whiteSpace=wrap;html=1;" vertex="1" parent="1">
          <mxGeometry x="219" y="430" width="390" height="60" as="geometry" />
        </mxCell>
        <mxCell id="e4yqo13JE2BYS8Fk3GtE-28" value="dp([0 1]) = dp([0]) + 1" style="whiteSpace=wrap;html=1;" vertex="1" parent="1">
          <mxGeometry x="219" y="570" width="390" height="60" as="geometry" />
        </mxCell>
        <mxCell id="e4yqo13JE2BYS8Fk3GtE-32" value="" style="edgeStyle=orthogonalEdgeStyle;rounded=0;orthogonalLoop=1;jettySize=auto;html=1;" edge="1" parent="1" source="e4yqo13JE2BYS8Fk3GtE-30" target="e4yqo13JE2BYS8Fk3GtE-31">
          <mxGeometry relative="1" as="geometry" />
        </mxCell>
        <mxCell id="e4yqo13JE2BYS8Fk3GtE-30" value="dp([4 10 4 3 8 9]) = dp([4 10 4 3 8]) + 1" style="whiteSpace=wrap;html=1;" vertex="1" parent="1">
          <mxGeometry x="214" y="690" width="400" height="60" as="geometry" />
        </mxCell>
        <mxCell id="e4yqo13JE2BYS8Fk3GtE-34" value="" style="edgeStyle=orthogonalEdgeStyle;rounded=0;orthogonalLoop=1;jettySize=auto;html=1;" edge="1" parent="1" source="e4yqo13JE2BYS8Fk3GtE-31" target="e4yqo13JE2BYS8Fk3GtE-33">
          <mxGeometry relative="1" as="geometry" />
        </mxCell>
        <mxCell id="e4yqo13JE2BYS8Fk3GtE-31" value="dp([4 10 4 3 8]) = dp([4 10 4 3]) +1" style="whiteSpace=wrap;html=1;" vertex="1" parent="1">
          <mxGeometry x="214" y="830" width="400" height="60" as="geometry" />
        </mxCell>
        <mxCell id="e4yqo13JE2BYS8Fk3GtE-36" value="" style="edgeStyle=orthogonalEdgeStyle;rounded=0;orthogonalLoop=1;jettySize=auto;html=1;" edge="1" parent="1" source="e4yqo13JE2BYS8Fk3GtE-33" target="e4yqo13JE2BYS8Fk3GtE-35">
          <mxGeometry relative="1" as="geometry" />
        </mxCell>
        <mxCell id="e4yqo13JE2BYS8Fk3GtE-33" value="dp([4 10 4 3]) = dp(4 10 4)" style="whiteSpace=wrap;html=1;" vertex="1" parent="1">
          <mxGeometry x="214" y="970" width="400" height="60" as="geometry" />
        </mxCell>
        <mxCell id="e4yqo13JE2BYS8Fk3GtE-35" value="dp([4 10 4]) = dp([4 10])" style="whiteSpace=wrap;html=1;" vertex="1" parent="1">
          <mxGeometry x="214" y="1110" width="400" height="60" as="geometry" />
        </mxCell>
      </root>
    </mxGraphModel>
  </diagram>
</mxfile>
